<svg width="22" height="16" viewBox="0 0 22 16" fill="none" xmlns="http://www.w3.org/2000/svg">
<path fill-rule="evenodd" clip-rule="evenodd" d="M1.60869 2.08696H20.4783C20.755 2.08696 21.0204 1.97703 21.2161 1.78133C21.4118 1.58564 21.5217 1.32023 21.5217 1.04348C21.5217 0.766731 21.4118 0.501312 21.2161 0.305622C21.0204 0.109931 20.755 0 20.4783 0H1.60869C1.33195 0 1.06653 0.109931 0.870843 0.305622C0.675153 0.501312 0.565216 0.766731 0.565216 1.04348C0.565216 1.32023 0.675153 1.58564 0.870843 1.78133C1.06653 1.97703 1.33195 2.08696 1.60869 2.08696ZM20.4783 6.95652H5.60869C5.33195 6.95652 5.06653 7.06645 4.87084 7.26214C4.67515 7.45783 4.56522 7.72325 4.56522 8C4.56522 8.27675 4.67515 8.54217 4.87084 8.73786C5.06653 8.93355 5.33195 9.04348 5.60869 9.04348H20.4783C20.755 9.04348 21.0204 8.93355 21.2161 8.73786C21.4118 8.54217 21.5217 8.27675 21.5217 8C21.5217 7.72325 21.4118 7.45783 21.2161 7.26214C21.0204 7.06645 20.755 6.95652 20.4783 6.95652ZM20.4783 13.913H1.60869C1.33195 13.913 1.06653 14.023 0.870843 14.2187C0.675153 14.4144 0.565216 14.6798 0.565216 14.9565C0.565216 15.2333 0.675153 15.4987 0.870843 15.6944C1.06653 15.8901 1.33195 16 1.60869 16H20.4783C20.755 16 21.0204 15.8901 21.2161 15.6944C21.4118 15.4987 21.5217 15.2333 21.5217 14.9565C21.5217 14.6798 21.4118 14.4144 21.2161 14.2187C21.0204 14.023 20.755 13.913 20.4783 13.913Z" fill="black"/>
</svg>
